<svg xmlns="http://www.w3.org/2000/svg" viewBox="0 0 45 45"><g fill-rule="evenodd" stroke="#000" stroke-linecap="round" stroke-linejoin="round" stroke-width="1.5"><path stroke-linecap="butt" d="M9 39.3h27v-3H9v3zm3.5-7 1.5-2.5h17l1.5 2.5h-20zm-.5 4v-4h21v4H12z"/><path stroke-linecap="butt" stroke-linejoin="miter" d="M14 29.8v-13h17v13H14z"/><path stroke-linecap="butt" d="m14 16.8-3-2.5h23l-3 2.5H14zm-3-2.5v-5h4v2h5v-2h5v2h5v-2h4v5H11z"/><path fill="none" stroke="#fff" stroke-linejoin="miter" stroke-width="1" d="M12 35.8h21m-20-4h19m-18-2h17m-17-13h17m-20-2.5h23"/></g></svg>